<svg width="32" height="17" viewBox="0 0 32 17" fill="none" xmlns="http://www.w3.org/2000/svg">
<path d="M2.04 14.096C1.684 14.096 1.388 14.038 1.152 13.922C0.916 13.802 0.73 13.63 0.594 13.406C0.458 13.182 0.36 12.912 0.3 12.596C0.244 12.28 0.216 11.924 0.216 11.528L1.488 11.408C1.488 11.6 1.494 11.786 1.506 11.966C1.522 12.142 1.548 12.302 1.584 12.446C1.624 12.586 1.68 12.698 1.752 12.782C1.828 12.866 1.924 12.908 2.04 12.908C2.232 12.908 2.368 12.82 2.448 12.644C2.528 12.464 2.568 12.248 2.568 11.996C2.568 11.744 2.502 11.482 2.37 11.21C2.238 10.938 2.08 10.68 1.896 10.436C1.584 10.02 1.31 9.634 1.074 9.278C0.842 8.922 0.66 8.572 0.528 8.228C0.4 7.884 0.336 7.524 0.336 7.148C0.336 6.852 0.374 6.58 0.45 6.332C0.526 6.08 0.636 5.862 0.78 5.678C0.928 5.49 1.106 5.344 1.314 5.24C1.522 5.136 1.76 5.084 2.028 5.084C2.36 5.084 2.64 5.14 2.868 5.252C3.1 5.364 3.286 5.524 3.426 5.732C3.57 5.94 3.674 6.188 3.738 6.476C3.806 6.76 3.84 7.076 3.84 7.424L2.568 7.544C2.568 7.396 2.56 7.248 2.544 7.1C2.532 6.948 2.508 6.81 2.472 6.686C2.436 6.562 2.384 6.462 2.316 6.386C2.248 6.31 2.16 6.272 2.052 6.272C1.884 6.272 1.768 6.344 1.704 6.488C1.64 6.628 1.608 6.828 1.608 7.088C1.608 7.424 1.698 7.748 1.878 8.06C2.058 8.372 2.3 8.736 2.604 9.152C2.968 9.644 3.264 10.096 3.492 10.508C3.724 10.92 3.84 11.376 3.84 11.876C3.84 12.192 3.806 12.486 3.738 12.758C3.67 13.026 3.562 13.26 3.414 13.46C3.27 13.66 3.084 13.816 2.856 13.928C2.632 14.04 2.36 14.096 2.04 14.096ZM4.53469 14V5.18H5.74669L6.94669 9.776L7.05469 10.184H7.12669V5.18H8.31469V14H7.22269L5.90269 9.404L5.79469 8.996H5.72269V14H4.53469ZM9.26906 14V5.18H12.2331V6.512H10.5651V8.888H11.7651V10.184H10.5651V12.668H12.2331V14H9.26906ZM12.9483 14L14.2803 5.18H15.8643L17.1963 14H15.9363L15.6963 12.2H14.4483L14.2083 14H12.9483ZM14.6283 10.832H15.5163L15.1443 7.868L15.1083 7.4H15.0363L15.0003 7.868L14.6283 10.832ZM17.8823 14V5.18H19.1783V8.12V8.264H19.2263L19.2863 8.12L20.2943 5.18H21.6263L20.4383 8.084L21.7823 14H20.4503L19.5863 9.98H19.5503L19.1783 10.88V14H17.8823Z" fill="black"/>
<path d="M32 10V0.559999H30.56V10H32ZM30.08 10V0.559999H29.6V10H30.08ZM29.12 10V0.559999H28.64V10H29.12ZM28.16 10V0.559999H26.72V10H28.16ZM25.28 10V0.559999H24.8V10H25.28ZM29.312 11.392H28.224C27.7973 11.392 27.488 11.488 27.296 11.68C27.0933 11.8613 26.992 12.1227 26.992 12.464C26.992 12.6773 27.0613 12.88 27.2 13.072C27.3387 13.264 27.52 13.392 27.744 13.456L26.88 15.104H27.344L28.176 13.472H28.896V15.104H29.312V11.392ZM28.176 13.104C27.92 13.104 27.728 13.0453 27.6 12.928C27.4827 12.8213 27.424 12.6667 27.424 12.464C27.424 12.2613 27.4827 12.096 27.6 11.968C27.728 11.8507 27.92 11.792 28.176 11.792H28.896V13.104H28.176Z" fill="black"/>
</svg>
